<?xml version="1.0" encoding="utf-8"?>
<!-- Generator: Adobe Illustrator 26.3.1, SVG Export Plug-In . SVG Version: 6.00 Build 0)  -->
<svg version="1.1" id="Layer_1" xmlns="http://www.w3.org/2000/svg" xmlns:xlink="http://www.w3.org/1999/xlink" x="0px" y="0px"
	 viewBox="0 0 716.9 856.96" style="enable-background:new 0 0 716.9 856.96;" xml:space="preserve">
<style type="text/css">
	.st0{fill:#FFEC3B;}
	.st1{fill:#212136;}
	.st2{fill:#F74660;}
	.st3{font-family:'Arial-BoldMT';}
	.st4{font-size:20px;}
	.st5{letter-spacing:1;}
</style>
<g>
	<circle class="st0" cx="358.45" cy="286.35" r="282.77"/>
	<g>
		<path class="st1" d="M400.16,256.63c0.79-2.9,2.65-5.32,5.26-6.82c2.61-1.5,5.64-1.89,8.54-1.1c2.9,0.79,5.32,2.65,6.82,5.26
			l11.43-6.55c-3.25-5.66-8.5-9.72-14.8-11.42c-6.3-1.7-12.88-0.86-18.54,2.39c-5.66,3.25-9.72,8.5-11.42,14.8
			c-1.71,6.3-0.86,12.88,2.39,18.54l11.43-6.55C399.76,262.57,399.37,259.53,400.16,256.63z"/>
		<path class="st1" d="M439.85,262.58l-9.79,5.62c4.34,7.56,12.26,11.79,20.41,11.79c3.96,0,7.97-1,11.65-3.11
			c5.44-3.12,9.34-8.18,10.98-14.23c1.64-6.05,0.82-12.38-2.3-17.83l-9.79,5.62c1.62,2.83,2.05,6.11,1.19,9.26
			c-0.85,3.14-2.88,5.77-5.7,7.39C450.67,270.44,443.2,268.41,439.85,262.58z"/>
		<path class="st1" d="M466.65,136.11c4.63,3.67,11.15,6.81,18.38,8.83c5.2,1.46,10.6,2.27,15.53,2.27c8.97,0,16.4-2.69,18.19-9.09
			v0c2.78-9.91-10.6-19.25-25.25-23.37c-14.65-4.11-30.94-3.09-33.72,6.82C459,124.35,458.86,129.93,466.65,136.11z M477.97,122.28
			c3.49,0,7.88,0.51,12.89,1.92c12.15,3.41,18.38,9.39,18.46,11.29c-1.06,1.57-9.49,3.44-21.63,0.03
			c-12.27-3.44-18.5-9.51-18.49-11.24C469.74,123.34,472.92,122.28,477.97,122.28z"/>
		<path class="st1" d="M297.42,252.05l-3.02,15.71c1.92,0.37,3.84,0.55,5.75,0.55c5.95,0,11.77-1.77,16.8-5.18
			c6.65-4.51,11.15-11.33,12.67-19.22l-15.71-3.02C312.44,248.51,305.05,253.51,297.42,252.05z"/>
		<path class="st1" d="M468.44,214.06c5.38-3.09,12.27-1.22,15.36,4.16l11.42-6.56c-6.7-11.68-21.66-15.73-33.34-9.03
			c-11.68,6.7-15.73,21.66-9.03,33.34l11.43-6.55C461.19,224.03,463.06,217.14,468.44,214.06z"/>
		<path class="st1" d="M556.04,236.84c-4.72-24.39-17.95-45.52-36.65-60.39l0.07-0.1c-1.29-0.97-2.72-2-4.28-3.07
			c-13.35-9.54-29.16-16.03-46.45-18.5c-8.85-1.34-18.53-1.67-28.93-0.41c-46.55,5.66-81.92,43.26-92.31,98.15
			c-10.76,56.88-41.93,88.21-87.75,88.21c-46.28,0-83.92-37.65-83.92-83.92c0-46.28,37.65-83.92,83.92-83.92
			c14.56,0,28.91,3.79,41.48,10.95l8.73-15.32c-15.23-8.67-32.58-13.26-50.2-13.26c-7.27,0-14.36,0.78-21.2,2.24
			c-2.88-6.21-4.51-13.13-4.51-20.42c0-8.86,2.38-17.15,6.51-24.31c-21.69,3.93-38.53,22.47-39.43,45.41
			c-0.2,5.06,0.4,9.96,1.67,14.6c-21.61,14.69-37.28,37.49-42.61,63.99l-0.01,0c-11.67,47.82-18.16,112.55-16.68,140.74l0.01,0
			c0.49,25.84,20.02,48.09,46.4,51.24c2.1,0.25,4.2,0.37,6.27,0.37c12.73,0,24.64-4.64,33.9-12.45
			c29.03-22.45,62.82-51.6,93.38-80.59l-0.17-0.18c20.47-17.46,34.85-44.65,41.55-80.08c9.04-47.78,37.87-79.16,77.12-83.93
			c4.12-0.5,8.1-0.7,11.94-0.65l0,0.06c4.02,0.04,7.96,0.35,11.82,0.88c16.09,2.37,28.98,8.77,37.73,14.46
			c22.45,15.36,36.9,40.87,36.9,70.18c0,46.28-37.65,83.92-83.92,83.92c-19.56,0-36.46-5.57-50.25-16.54
			c-0.41-0.38-0.82-0.77-1.22-1.15l-12.14,12.79c31.29,29.68,66.75,60.1,97.3,83.45l0.05-0.07c8.71,6.25,19.33,9.88,30.6,9.88
			c2.07,0,4.16-0.12,6.27-0.37c26.38-3.15,45.9-25.39,46.39-51.24l0.01,0C575,347.04,566.89,281.33,556.04,236.84z M178.04,409.67
			c-3.88-2.6-7.57-6.1-10.29-10.06c2.79-2.4,5.19-4.37,7.97-6.61c2.25,2.9,5.09,5.82,7.96,7.68L178.04,409.67z M251.95,380.43
			c-8.71,7.56-26.83,23.29-38.08,29.38c-5.3,2.87-10.95,4.32-16.81,4.32c-0.19,0-0.39,0-0.58,0l0.17-10.35
			c4.25,0.05,8.4-0.96,12.29-3.07c10.26-5.55,27.8-20.78,36.23-28.09l1.83-1.59l6.77,7.83L251.95,380.43z M557,328.94
			c0,0,0.26,3.04,0.41,4.84c0.21,2.52,0.43,5.05,0.52,6l-10.3,1.04c-0.1-0.97-0.32-3.57-0.54-6.17c-0.15-1.75-0.4-4.71-0.4-4.71
			L557,328.94z M559.57,376.8c-1.36,15.18-9.19,27.15-20.95,32.03l-3.97-9.56c12.06-5,14.23-19.17,14.61-23.39
			c0.39-4.33,0.32-10.84-0.21-19.37l10.33-0.64C559.95,365.04,560.01,371.88,559.57,376.8z"/>
		<path class="st1" d="M238.17,228.56l-10.42-4.35c-3.38,8.07-10.36,11.88-18.7,10.17l-2.27,11.06c2.07,0.42,4.1,0.63,6.09,0.63
			c2.48,0,4.87-0.34,7.15-0.96c5.44,13.87,14.33,26.5,26.04,36.87l7.49-8.45c-10.7-9.47-18.73-21.03-23.48-33.71
			C233.46,236.95,236.25,233.16,238.17,228.56z"/>
		<path class="st1" d="M275.51,240.64c-5.65-9.83-7.63-21.7-6.26-37.36l-15.93-1.4c-1.68,19.08,0.96,33.93,8.32,46.73L275.51,240.64
			z"/>
	</g>
	<g>
		<path class="st0" d="M78.32,669.77c0-32.13,21.8-51.52,51.95-51.52c15.71,0,28.73,5.95,36.66,15.71l-19.96,22.22
			c-3.96-3.26-9.06-6.51-15.99-6.51c-11.46,0-19.96,7.36-19.96,20.1c0,13.02,8.92,20.38,19.96,20.38c6.65,0,11.75-2.83,15.71-5.94
			l19.25,22.93c-8.07,8.78-20.81,14.44-35.67,14.44C100.12,721.58,78.32,701.9,78.32,669.77z"/>
		<path class="st0" d="M283.59,669.77c0-31.28,23.21-51.52,53.22-51.52c30.01,0,53.22,20.24,53.22,51.52
			c0,32.7-23.21,51.81-53.22,51.81C306.81,721.58,283.59,702.47,283.59,669.77z M356.49,669.77c0-12.17-7.93-20.95-19.96-20.95
			c-12.03,0-19.96,8.78-19.96,20.95c0,12.31,7.93,21.09,19.96,21.09C348.56,690.86,356.49,682.09,356.49,669.77z"/>
		<path class="st0" d="M391.45,620.38h33.83l10.76,60.3h1.98l18.45-45.12h6.69l18.45,45.12h1.98l10.76-60.3h33.97l-20.38,99.08
			h-37.17l-9.97-30.64h-1.98l-9.97,30.64h-37.03L391.45,620.38z"/>
		<path class="st0" d="M539.92,620.38h48.55c28.59,0,50.11,17.13,50.11,49.68c0,32.56-21.51,49.4-50.11,49.4h-48.55V620.38z
			 M584.93,693.98c15.57,0,22.36-9.34,22.36-24.06c0-14.72-6.79-24.06-23.5-24.06h-11.47v48.12H584.93z"/>
		<path class="st0" d="M275.64,654.64c0-18.37-14.94-34.26-33.31-34.26H178.4v14.42v44.09v10.02v30.55h29.57h2.26V688.9h13.92
			l11.43,30.55h36.66l-15.06-34.25C268.12,679.46,275.64,667.67,275.64,654.64z M233.85,665.24h-23.62v-21.21h23.62
			c5.33,0,9.65,5.28,9.65,10.6C243.5,659.97,239.18,665.24,233.85,665.24z"/>
	</g>
	<g>
		<path class="st2" d="M5.95,802.85c0-32.13,21.8-51.52,51.95-51.52c15.71,0,28.73,5.95,36.66,15.71L74.6,789.26
			c-3.96-3.26-9.06-6.51-15.99-6.51c-11.46,0-19.96,7.36-19.96,20.1c0,13.02,8.92,20.38,19.96,20.38c6.65,0,11.75-2.83,15.71-5.94
			l19.25,22.93c-8.07,8.78-20.81,14.44-35.67,14.44C27.75,854.65,5.95,834.98,5.95,802.85z"/>
		<path class="st2" d="M94.13,802.85c0-31.28,23.21-51.52,53.22-51.52c30.01,0,53.22,20.24,53.22,51.52
			c0,32.7-23.21,51.81-53.22,51.81C117.34,854.65,94.13,835.54,94.13,802.85z M167.03,802.85c0-12.17-7.93-20.95-19.96-20.95
			c-12.03,0-19.96,8.78-19.96,20.95c0,12.31,7.93,21.09,19.96,21.09C159.1,823.94,167.03,815.16,167.03,802.85z"/>
		<path class="st2" d="M209.21,753.45h33.97l36.52,53.65h0.99v-53.65h30.43v99.08h-33.97l-36.38-53.5h-1.13v53.5h-30.43V753.45z"/>
		<path class="st2" d="M349.93,778.92h-28.31v-25.48h89.17v25.48h-28.31v73.6h-32.55V778.92z"/>
		<path class="st2" d="M523.81,802.85c0-31.28,23.21-51.52,53.22-51.52c30.01,0,53.22,20.24,53.22,51.52
			c0,32.7-23.21,51.81-53.22,51.81C547.02,854.65,523.81,835.54,523.81,802.85z M596.71,802.85c0-12.17-7.93-20.95-19.96-20.95
			c-12.03,0-19.96,8.78-19.96,20.95c0,12.31,7.93,21.09,19.96,21.09C588.78,823.94,596.71,815.16,596.71,802.85z"/>
		<path class="st2" d="M639.18,753.45h32.55v73.6h39.21v25.48h-71.76V753.45z"/>
		<path class="st2" d="M517.11,787.71c0-18.37-14.94-34.26-33.31-34.26h-62.96v14.42v44.09v10.02v30.55h29.57h2.26v-30.55h12.94
			l11.43,30.55h36.66l-15.06-34.25C509.58,812.53,517.11,800.74,517.11,787.71z M475.32,798.32h-22.64v-21.21h22.64
			c5.33,0,9.65,5.28,9.65,10.6C484.97,793.04,480.65,798.32,475.32,798.32z"/>
	</g>
	<text transform="matrix(1 0 0 1 678.5085 767.1429)"><tspan x="0" y="0" class="st2 st3 st4 st5">T</tspan><tspan x="13.56" y="0" class="st2 st3 st4">M</tspan></text>
</g>
</svg>
