<svg width="717" height="857" viewBox="0 0 717 857" fill="none" xmlns="http://www.w3.org/2000/svg">
<path fill-rule="evenodd" clip-rule="evenodd" d="M641.22 286.35C641.22 442.52 514.62 569.12 358.45 569.12C202.28 569.12 75.6799 442.52 75.6799 286.35C75.6799 130.18 202.28 3.58 358.45 3.58C514.62 3.58 641.22 130.18 641.22 286.35ZM466.65 136.11C471.28 139.78 477.8 142.92 485.03 144.94C490.23 146.4 495.63 147.21 500.56 147.21C509.53 147.21 516.96 144.52 518.75 138.12C521.53 128.21 508.15 118.87 493.5 114.75C478.85 110.64 462.56 111.66 459.78 121.57C459 124.35 458.86 129.93 466.65 136.11ZM477.97 122.28C481.46 122.28 485.85 122.79 490.86 124.2C503.01 127.61 509.24 133.59 509.32 135.49C508.26 137.06 499.83 138.93 487.69 135.52C475.42 132.08 469.19 126.01 469.2 124.28C469.74 123.34 472.92 122.28 477.97 122.28ZM405.42 249.81C402.81 251.31 400.95 253.73 400.16 256.63C399.37 259.53 399.76 262.57 401.27 265.18L389.84 271.73C386.59 266.07 385.74 259.49 387.45 253.19C389.15 246.89 393.21 241.64 398.87 238.39C404.53 235.14 411.11 234.3 417.41 236C423.71 237.7 428.96 241.76 432.21 247.42L420.78 253.97C419.28 251.36 416.86 249.5 413.96 248.71C411.06 247.92 408.03 248.31 405.42 249.81ZM430.06 268.2L439.85 262.58C443.2 268.41 450.67 270.44 456.5 267.09C459.32 265.47 461.35 262.84 462.2 259.7C463.06 256.55 462.63 253.27 461.01 250.44L470.8 244.82C473.92 250.27 474.74 256.6 473.1 262.65C471.46 268.7 467.56 273.76 462.12 276.88C458.44 278.99 454.43 279.99 450.47 279.99C442.32 279.99 434.4 275.76 430.06 268.2ZM294.4 267.76L297.42 252.05C305.05 253.51 312.44 248.51 313.91 240.89L329.62 243.91C328.1 251.8 323.6 258.62 316.95 263.13C311.92 266.54 306.1 268.31 300.15 268.31C298.24 268.31 296.32 268.13 294.4 267.76ZM468.44 214.06C473.82 210.97 480.71 212.84 483.8 218.22L495.22 211.66C488.52 199.98 473.56 195.93 461.88 202.63C450.2 209.33 446.15 224.29 452.85 235.97L464.28 229.42C461.19 224.03 463.06 217.14 468.44 214.06ZM519.39 176.45C538.09 191.32 551.32 212.45 556.04 236.84C566.89 281.33 575 347.04 573.43 377.49H573.42C572.93 403.34 553.41 425.58 527.03 428.73C524.92 428.98 522.83 429.1 520.76 429.1C509.49 429.1 498.87 425.47 490.16 419.22L490.11 419.29C459.56 395.94 424.1 365.52 392.81 335.84L404.95 323.05L405.01 323.107L405.018 323.114C405.396 323.474 405.783 323.841 406.17 324.2C419.96 335.17 436.86 340.74 456.42 340.74C502.69 340.74 540.34 303.1 540.34 256.82C540.34 227.51 525.89 202 503.44 186.64C494.69 180.95 481.8 174.55 465.71 172.18C461.85 171.65 457.91 171.34 453.89 171.3V171.24C450.05 171.19 446.07 171.39 441.95 171.89C402.7 176.66 373.87 208.04 364.83 255.82C358.13 291.25 343.75 318.44 323.28 335.9L323.45 336.08C292.89 365.07 259.1 394.22 230.07 416.67C220.81 424.48 208.9 429.12 196.17 429.12C194.1 429.12 192 429 189.9 428.75C163.52 425.6 143.99 403.35 143.5 377.51H143.49C142.01 349.32 148.5 284.59 160.17 236.77H160.18C165.51 210.27 181.18 187.47 202.79 172.78C201.52 168.14 200.92 163.24 201.12 158.18C202.02 135.24 218.86 116.7 240.55 112.77C236.42 119.93 234.04 128.22 234.04 137.08C234.04 144.37 235.67 151.29 238.55 157.5C245.39 156.04 252.48 155.26 259.75 155.26C277.37 155.26 294.72 159.85 309.95 168.52L301.22 183.84C288.65 176.68 274.3 172.89 259.74 172.89C213.47 172.89 175.82 210.53 175.82 256.81C175.82 303.08 213.46 340.73 259.74 340.73C305.56 340.73 336.73 309.4 347.49 252.52C357.88 197.63 393.25 160.03 439.8 154.37C450.2 153.11 459.88 153.44 468.73 154.78C486.02 157.25 501.83 163.74 515.18 173.28C516.74 174.35 518.17 175.38 519.46 176.35L519.39 176.45ZM167.75 399.61C170.47 403.57 174.16 407.07 178.04 409.67L183.68 400.68C180.81 398.82 177.97 395.9 175.72 393C172.94 395.24 170.54 397.21 167.75 399.61ZM251.933 380.444L251.95 380.43L253.77 378.86L247 371.03L245.17 372.62L245.019 372.751C236.532 380.111 219.139 395.193 208.94 400.71C205.05 402.82 200.9 403.83 196.65 403.78L196.48 414.13H197.06C202.92 414.13 208.57 412.68 213.87 409.81C225.113 403.724 243.217 388.01 251.933 380.444ZM557.41 333.78C557.26 331.98 557 328.94 557 328.94L546.69 329.94C546.69 329.94 546.94 332.9 547.09 334.65L547.091 334.665L547.091 334.668C547.311 337.262 547.53 339.852 547.63 340.82L557.93 339.78C557.84 338.83 557.62 336.3 557.41 333.78ZM538.62 408.83C550.38 403.95 558.21 391.98 559.57 376.8C560.01 371.88 559.95 365.04 559.38 355.87L549.05 356.51C549.58 365.04 549.65 371.55 549.26 375.88C548.88 380.1 546.71 394.27 534.65 399.27L538.62 408.83ZM238.17 228.56L227.75 224.21C224.37 232.28 217.39 236.09 209.05 234.38L206.78 245.44C208.85 245.86 210.88 246.07 212.87 246.07C215.35 246.07 217.74 245.73 220.02 245.11C225.46 258.98 234.35 271.61 246.06 281.98L253.55 273.53C242.85 264.06 234.82 252.5 230.07 239.82C233.46 236.95 236.25 233.16 238.17 228.56ZM269.25 203.28C267.88 218.94 269.86 230.81 275.51 240.64L261.64 248.61C254.28 235.81 251.64 220.96 253.32 201.88L269.25 203.28Z" fill="#FAFAFA"/>
<path d="M78.3201 669.77C78.3201 637.64 100.12 618.25 130.27 618.25C145.98 618.25 159 624.2 166.93 633.96L146.97 656.18C143.01 652.92 137.91 649.67 130.98 649.67C119.52 649.67 111.02 657.03 111.02 669.77C111.02 682.79 119.94 690.15 130.98 690.15C137.63 690.15 142.73 687.32 146.69 684.21L165.94 707.14C157.87 715.92 145.13 721.58 130.27 721.58C100.12 721.58 78.3201 701.9 78.3201 669.77Z" fill="#FAFAFA"/>
<path d="M283.59 669.77C283.59 638.49 306.8 618.25 336.81 618.25C366.82 618.25 390.03 638.49 390.03 669.77C390.03 702.47 366.82 721.58 336.81 721.58C306.81 721.58 283.59 702.47 283.59 669.77ZM356.49 669.77C356.49 657.6 348.56 648.82 336.53 648.82C324.5 648.82 316.57 657.6 316.57 669.77C316.57 682.08 324.5 690.86 336.53 690.86C348.56 690.86 356.49 682.09 356.49 669.77Z" fill="#FAFAFA"/>
<path d="M391.45 620.38H425.28L436.04 680.68H438.02L456.47 635.56H463.16L481.61 680.68H483.59L494.35 620.38H528.32L507.94 719.46H470.77L460.8 688.82H458.82L448.85 719.46H411.82L391.45 620.38Z" fill="#FAFAFA"/>
<path d="M539.92 620.38H588.47C617.06 620.38 638.58 637.51 638.58 670.06C638.58 702.62 617.07 719.46 588.47 719.46H539.92V620.38ZM584.93 693.98C600.5 693.98 607.29 684.64 607.29 669.92C607.29 655.2 600.5 645.86 583.79 645.86H572.32V693.98H584.93V693.98Z" fill="#FAFAFA"/>
<path d="M275.64 654.64C275.64 636.27 260.7 620.38 242.33 620.38H178.4V634.8V678.89V688.91V719.46H207.97H210.23V688.9H224.15L235.58 719.45H272.24L257.18 685.2C268.12 679.46 275.64 667.67 275.64 654.64ZM233.85 665.24H210.23V644.03H233.85C239.18 644.03 243.5 649.31 243.5 654.63C243.5 659.97 239.18 665.24 233.85 665.24Z" fill="#FAFAFA"/>
<path d="M5.94995 802.85C5.94995 770.72 27.75 751.33 57.9 751.33C73.61 751.33 86.63 757.28 94.56 767.04L74.6 789.26C70.64 786 65.54 782.75 58.61 782.75C47.15 782.75 38.65 790.11 38.65 802.85C38.65 815.87 47.57 823.23 58.61 823.23C65.26 823.23 70.36 820.4 74.32 817.29L93.57 840.22C85.5 849 72.76 854.66 57.9 854.66C27.75 854.65 5.94995 834.98 5.94995 802.85Z" fill="#FAFAFA"/>
<path d="M94.1299 802.85C94.1299 771.57 117.34 751.33 147.35 751.33C177.36 751.33 200.57 771.57 200.57 802.85C200.57 835.55 177.36 854.66 147.35 854.66C117.34 854.65 94.1299 835.54 94.1299 802.85ZM167.03 802.85C167.03 790.68 159.1 781.9 147.07 781.9C135.04 781.9 127.11 790.68 127.11 802.85C127.11 815.16 135.04 823.94 147.07 823.94C159.1 823.94 167.03 815.16 167.03 802.85Z" fill="#FAFAFA"/>
<path d="M209.21 753.45H243.18L279.7 807.1H280.69V753.45H311.12V852.53H277.15L240.77 799.03H239.64V852.53H209.21V753.45V753.45Z" fill="#FAFAFA"/>
<path d="M349.93 778.92H321.62V753.44H410.79V778.92H382.48V852.52H349.93V778.92Z" fill="#FAFAFA"/>
<path d="M523.81 802.85C523.81 771.57 547.02 751.33 577.03 751.33C607.04 751.33 630.25 771.57 630.25 802.85C630.25 835.55 607.04 854.66 577.03 854.66C547.02 854.65 523.81 835.54 523.81 802.85ZM596.71 802.85C596.71 790.68 588.78 781.9 576.75 781.9C564.72 781.9 556.79 790.68 556.79 802.85C556.79 815.16 564.72 823.94 576.75 823.94C588.78 823.94 596.71 815.16 596.71 802.85Z" fill="#FAFAFA"/>
<path d="M639.18 753.45H671.73V827.05H710.94V852.53H639.18V753.45Z" fill="#FAFAFA"/>
<path d="M517.11 787.71C517.11 769.34 502.17 753.45 483.8 753.45H420.84V767.87V811.96V821.98V852.53H450.41H452.67V821.98H465.61L477.04 852.53H513.7L498.64 818.28C509.58 812.53 517.11 800.74 517.11 787.71ZM475.32 798.32H452.68V777.11H475.32C480.65 777.11 484.97 782.39 484.97 787.71C484.97 793.04 480.65 798.32 475.32 798.32Z" fill="#FAFAFA"/>
<path d="M683.186 765.143V753.248H678.938V750.826H690.315V753.248H686.077V765.143H683.186ZM692.151 765.143V750.826H696.477L699.075 760.592L701.643 750.826H705.979V765.143H703.293V753.873L700.452 765.143H697.668L694.836 753.873V765.143H692.151Z" fill="#FAFAFA"/>
</svg>
