<svg width="1255" height="384" viewBox="0 0 1255 384" fill="none" xmlns="http://www.w3.org/2000/svg">
<path fill-rule="evenodd" clip-rule="evenodd" d="M431.22 191.61C431.22 294.12 348.12 377.22 245.61 377.22C143.1 377.22 60 294.12 60 191.61C60 89.1004 143.1 6 245.61 6C348.12 6 431.22 89.1004 431.22 191.61ZM316.636 92.9974C319.673 95.4068 323.959 97.463 328.699 98.7972C332.113 99.7547 335.652 100.288 338.894 100.288C344.788 100.288 349.654 98.5225 350.839 94.3237C352.659 87.8175 343.877 81.6881 334.263 78.9883C324.649 76.2885 313.952 76.9556 312.131 83.4618C311.613 85.2826 311.519 88.9477 316.636 92.9974ZM324.061 83.917C326.352 83.917 329.233 84.2466 332.521 85.1727C340.495 87.4094 344.584 91.3335 344.639 92.5814C343.948 93.6174 338.407 94.8417 330.441 92.6049C322.389 90.3447 318.3 86.3656 318.308 85.2276C318.661 84.6155 320.749 83.917 324.061 83.917ZM276.438 167.634C274.727 168.615 273.503 170.2 272.985 172.107C272.474 174.014 272.726 176.008 273.707 177.727L266.204 182.027C264.069 178.307 263.512 173.991 264.634 169.855C265.748 165.719 268.417 162.273 272.129 160.139C275.849 158.004 280.166 157.447 284.302 158.569C288.438 159.684 291.883 162.352 294.018 166.064L286.515 170.365C285.534 168.654 283.948 167.43 282.041 166.912C280.142 166.394 278.149 166.653 276.438 167.634ZM292.613 179.704L299.04 176.016C301.238 179.838 306.143 181.172 309.965 178.974C311.825 177.907 313.152 176.188 313.709 174.124C314.266 172.06 313.991 169.902 312.924 168.05L319.352 164.361C321.4 167.932 321.934 172.092 320.859 176.063C319.783 180.034 317.225 183.354 313.654 185.402C311.244 186.783 308.607 187.443 306.01 187.443C300.665 187.443 295.462 184.664 292.613 179.704ZM203.567 179.414L205.553 169.101C210.56 170.059 215.41 166.778 216.368 161.771L226.68 163.757C225.691 168.929 222.732 173.41 218.369 176.369C215.065 178.613 211.251 179.775 207.342 179.775C206.086 179.775 204.823 179.657 203.567 179.414ZM317.806 144.16C321.337 142.135 325.858 143.359 327.891 146.891L335.393 142.59C330.991 134.922 321.173 132.262 313.513 136.665C305.845 141.068 303.184 150.878 307.579 158.546L315.082 154.245C313.05 150.713 314.274 146.185 317.806 144.16ZM351.255 119.477C363.529 129.24 372.209 143.108 375.309 159.118C382.428 188.322 387.757 231.448 386.697 251.484H386.689C386.368 268.444 373.551 283.049 356.238 285.113C354.857 285.278 353.484 285.357 352.126 285.357C344.733 285.357 337.764 282.971 332.042 278.874L332.011 278.913C311.967 263.586 288.689 243.62 268.15 224.133L276.116 215.735L276.917 216.489C285.958 223.686 297.055 227.343 309.895 227.343C340.267 227.343 364.981 202.629 364.981 172.256C364.981 153.013 355.485 136.272 340.754 126.187C335.017 122.452 326.556 118.245 315.993 116.691C313.458 116.338 310.868 116.134 308.231 116.11V116.071C305.704 116.04 303.09 116.165 300.391 116.495C274.625 119.626 255.703 140.212 249.77 171.581C245.375 194.836 235.933 212.682 222.497 224.149L222.615 224.266C202.555 243.298 180.376 262.424 161.32 277.163C155.246 282.288 147.429 285.333 139.071 285.333C137.713 285.333 136.34 285.255 134.958 285.09C117.645 283.026 104.829 268.42 104.507 251.46H104.499C103.526 232.954 107.788 190.472 115.448 159.079H115.455C118.956 141.68 129.245 126.721 143.426 117.076C142.595 114.031 142.21 110.813 142.336 107.493C142.916 92.4323 153.974 80.2597 168.211 77.6855C165.503 82.3866 163.942 87.8254 163.942 93.6409C163.942 98.4283 165.009 102.965 166.9 107.046C171.39 106.088 176.044 105.57 180.815 105.57C192.384 105.57 203.779 108.584 213.77 114.274L208.041 124.327C199.792 119.626 190.374 117.138 180.815 117.138C150.443 117.138 125.729 141.852 125.729 172.225C125.729 202.597 150.443 227.311 180.815 227.311C210.89 227.311 231.35 206.749 238.413 169.415C245.233 133.384 268.456 108.702 299.009 104.989C305.837 104.158 312.194 104.377 318.002 105.256C329.35 106.873 339.726 111.135 348.492 117.397C349.512 118.096 350.454 118.779 351.302 119.414L351.255 119.477ZM120.431 265.956C122.221 268.562 124.638 270.861 127.189 272.564L130.877 266.655C128.994 265.438 127.134 263.523 125.658 261.616C123.837 263.084 122.26 264.379 120.431 265.956ZM150.71 272.651C158.095 268.656 169.993 258.328 175.706 253.368L176.899 252.332L172.457 247.191L171.256 248.235L171.226 248.261C165.681 253.074 154.198 263.043 147.476 266.678C144.925 268.059 142.194 268.726 139.408 268.695L139.298 275.484H139.675C143.521 275.484 147.233 274.534 150.71 272.651ZM376.212 222.752C376.11 221.567 375.937 219.573 375.937 219.573L369.18 220.232C369.18 220.232 369.353 222.171 369.447 223.325C369.588 225.028 369.737 226.739 369.8 227.374L376.557 226.691C376.498 226.107 376.369 224.595 376.236 223.036L376.212 222.752ZM363.875 272.007C371.589 268.805 376.738 260.941 377.625 250.982C377.915 247.756 377.868 243.267 377.499 237.232L370.718 237.655C371.064 243.251 371.119 247.528 370.86 250.37C370.608 253.148 369.188 262.44 361.269 265.728L363.875 272.007ZM166.657 153.68L159.821 150.823C157.608 156.12 153.017 158.624 147.547 157.502L146.056 164.761C147.413 165.036 148.748 165.177 150.05 165.177C151.675 165.177 153.245 164.958 154.744 164.549C158.314 173.653 164.154 181.941 171.837 188.745L176.75 183.197C169.726 176.981 164.452 169.392 161.344 161.073C163.573 159.189 165.401 156.701 166.657 153.68ZM187.062 137.096C186.16 147.37 187.463 155.163 191.167 161.614L182.063 166.849C177.237 158.444 175.502 148.704 176.601 136.178L187.062 137.096Z" fill="#FAFAFA"/>
<path d="M486.86 256.78C486.86 224.65 508.66 205.26 538.81 205.26C554.52 205.26 567.54 211.21 575.47 220.97L555.51 243.19C551.55 239.93 546.45 236.68 539.52 236.68C528.06 236.68 519.56 244.04 519.56 256.78C519.56 269.8 528.48 277.16 539.52 277.16C546.17 277.16 551.27 274.33 555.23 271.22L574.48 294.15C566.41 302.93 553.67 308.59 538.81 308.59C508.66 308.58 486.86 288.91 486.86 256.78Z" fill="#FAFAFA"/>
<path d="M577.04 256.78C577.04 225.5 600.25 205.26 630.26 205.26C660.27 205.26 683.48 225.5 683.48 256.78C683.48 289.48 660.27 308.59 630.26 308.59C600.25 308.58 577.04 289.47 577.04 256.78ZM649.93 256.78C649.93 244.61 642 235.83 629.97 235.83C617.94 235.83 610.01 244.61 610.01 256.78C610.01 269.09 617.94 277.87 629.97 277.87C642.01 277.87 649.93 269.09 649.93 256.78Z" fill="#FAFAFA"/>
<path d="M693.12 207.38H727.09L763.61 261.03H764.6V207.38H795.03V306.46H761.06L724.68 252.96H723.55V306.46H693.12V207.38Z" fill="#FAFAFA"/>
<path d="M834.84 232.86H806.53V207.38H895.7V232.86H867.39V306.46H834.84V232.86V232.86Z" fill="#FAFAFA"/>
<path d="M1009.72 256.78C1009.72 225.5 1032.93 205.26 1062.94 205.26C1092.95 205.26 1116.16 225.5 1116.16 256.78C1116.16 289.48 1092.95 308.59 1062.94 308.59C1032.93 308.58 1009.72 289.47 1009.72 256.78ZM1082.62 256.78C1082.62 244.61 1074.69 235.83 1062.66 235.83C1050.63 235.83 1042.7 244.61 1042.7 256.78C1042.7 269.09 1050.63 277.87 1062.66 277.87C1074.69 277.87 1082.62 269.09 1082.62 256.78Z" fill="#FAFAFA"/>
<path d="M1125.1 207.38H1157.65V280.98H1196.86V306.46H1125.1V207.38Z" fill="#FAFAFA"/>
<path d="M1003.02 241.64C1003.02 223.27 988.08 207.38 969.71 207.38H906.75V221.8V265.89V275.91V306.46H936.32H938.58V275.91H951.52L962.95 306.46H999.61L984.55 272.21C995.49 266.46 1003.02 254.68 1003.02 241.64ZM961.23 252.25H938.59V231.04H961.23C966.56 231.04 970.88 236.32 970.88 241.64C970.88 246.97 966.56 252.25 961.23 252.25Z" fill="#FAFAFA"/>
<path d="M486.86 127.71C486.86 95.5801 508.66 76.1901 538.81 76.1901C554.52 76.1901 567.54 82.1401 575.47 91.9001L555.51 114.12C551.55 110.86 546.45 107.61 539.52 107.61C528.06 107.61 519.56 114.97 519.56 127.71C519.56 140.73 528.48 148.09 539.52 148.09C546.17 148.09 551.27 145.26 555.23 142.15L574.48 165.08C566.41 173.86 553.67 179.52 538.81 179.52C508.66 179.51 486.86 159.84 486.86 127.71Z" fill="#FAFAFA"/>
<path d="M692.13 127.71C692.13 96.4301 715.34 76.1901 745.35 76.1901C775.36 76.1901 798.57 96.4301 798.57 127.71C798.57 160.41 775.36 179.52 745.35 179.52C715.34 179.51 692.13 160.4 692.13 127.71ZM765.03 127.71C765.03 115.54 757.1 106.76 745.07 106.76C733.04 106.76 725.11 115.54 725.11 127.71C725.11 140.02 733.04 148.8 745.07 148.8C757.1 148.8 765.03 140.02 765.03 127.71Z" fill="#FAFAFA"/>
<path d="M799.99 78.3101H833.82L844.58 138.61H846.56L865.01 93.4901H871.7L890.15 138.61H892.13L902.89 78.3101H936.86L916.48 177.39H879.31L869.34 146.75H867.36L857.39 177.39H820.36L799.99 78.3101Z" fill="#FAFAFA"/>
<path d="M948.46 78.3101H997.01C1025.6 78.3101 1047.12 95.4401 1047.12 127.99C1047.12 160.55 1025.61 177.39 997.01 177.39H948.46V78.3101ZM993.47 151.91C1009.04 151.91 1015.83 142.57 1015.83 127.85C1015.83 113.13 1009.04 103.79 992.33 103.79H980.86V151.91H993.47Z" fill="#FAFAFA"/>
<path d="M684.18 112.57C684.18 94.2001 669.24 78.3101 650.87 78.3101H586.94V92.7301V136.82V146.84V177.39H616.51H618.77V146.84H632.69L644.12 177.39H680.78L665.72 143.14C676.65 137.39 684.18 125.61 684.18 112.57ZM642.39 123.18H618.77V101.97H642.39C647.72 101.97 652.04 107.25 652.04 112.57C652.03 117.9 647.72 123.18 642.39 123.18Z" fill="#FAFAFA"/>
<path d="M1053.05 96.64V81.77H1047.74V78.74H1061.96V81.77H1056.66V96.64H1053.05Z" fill="#FAFAFA"/>
<path d="M1065.92 96.64V78.74H1071.33L1074.58 90.95L1077.79 78.74H1083.21V96.64H1079.85V82.55L1076.3 96.64H1072.82L1069.28 82.55V96.64H1065.92Z" fill="#FAFAFA"/>
</svg>
