<svg width="1255" height="381" viewBox="0 0 1255 381" fill="none" xmlns="http://www.w3.org/2000/svg">
<path d="M245.61 375.99C348.12 375.99 431.22 292.89 431.22 190.38C431.22 87.8704 348.12 4.77002 245.61 4.77002C143.1 4.77002 60 87.8704 60 190.38C60 292.89 143.1 375.99 245.61 375.99Z" fill="#FFEC3B"/>
<path d="M272.984 170.877C273.502 168.97 274.727 167.385 276.438 166.404C278.149 165.423 280.142 165.164 282.041 165.682C283.948 166.2 285.534 167.424 286.515 169.135L294.018 164.834C291.883 161.122 288.438 158.454 284.302 157.339C280.166 156.217 275.849 156.774 272.129 158.909C268.417 161.043 265.748 164.489 264.634 168.625C263.512 172.761 264.069 177.077 266.204 180.797L273.706 176.497C272.725 174.778 272.474 172.784 272.984 170.877Z" fill="#212136"/>
<path d="M299.04 174.786L292.613 178.474C295.462 183.434 300.665 186.213 306.01 186.213C308.607 186.213 311.244 185.553 313.654 184.172C317.225 182.124 319.783 178.804 320.858 174.833C321.934 170.862 321.4 166.702 319.352 163.131L312.924 166.82C313.991 168.672 314.266 170.83 313.709 172.894C313.152 174.958 311.825 176.677 309.965 177.744C306.143 179.942 301.238 178.608 299.04 174.786Z" fill="#212136"/>
<path d="M316.636 91.7673C319.673 94.1767 323.959 96.233 328.699 97.5672C332.113 98.5246 335.652 99.0583 338.894 99.0583C344.788 99.0583 349.654 97.2925 350.839 93.0937C352.659 86.5875 343.877 80.4581 334.263 77.7583C324.649 75.0585 313.952 75.7256 312.131 82.2318C311.613 84.0526 311.519 87.7177 316.636 91.7673ZM324.061 82.687C326.352 82.687 329.233 83.0166 332.521 83.9427C340.495 86.1794 344.584 90.1035 344.639 91.3514C343.948 92.3873 338.407 93.6117 330.441 91.3749C322.389 89.1147 318.3 85.1356 318.308 83.9976C318.661 83.3855 320.749 82.687 324.061 82.687Z" fill="#212136"/>
<path d="M205.553 167.871L203.567 178.184C204.823 178.427 206.086 178.545 207.342 178.545C211.251 178.545 215.065 177.383 218.369 175.139C222.732 172.18 225.691 167.699 226.68 162.527L216.368 160.541C215.41 165.548 210.56 168.829 205.553 167.871Z" fill="#212136"/>
<path d="M317.806 142.93C321.337 140.905 325.858 142.129 327.891 145.661L335.393 141.36C330.991 133.692 321.172 131.032 313.513 135.435C305.845 139.838 303.184 149.648 307.579 157.316L315.082 153.015C313.05 149.483 314.274 144.955 317.806 142.93Z" fill="#212136"/>
<path d="M375.309 157.888C372.209 141.878 363.529 128.01 351.255 118.247L351.302 118.184C350.454 117.549 349.512 116.866 348.492 116.167C339.726 109.905 329.35 105.643 318.002 104.026C312.194 103.147 305.837 102.927 299.009 103.759C268.456 107.472 245.233 132.154 238.413 168.185C231.35 205.519 210.89 226.081 180.815 226.081C150.443 226.081 125.729 201.367 125.729 170.995C125.729 140.622 150.443 115.908 180.815 115.908C190.374 115.908 199.792 118.396 208.041 123.097L213.77 113.044C203.779 107.354 192.384 104.34 180.815 104.34C176.044 104.34 171.39 104.858 166.9 105.816C165.009 101.735 163.942 97.1983 163.942 92.4109C163.942 86.5954 165.503 81.1566 168.211 76.4555C153.974 79.0297 142.916 91.2023 142.336 106.263C142.21 109.583 142.595 112.801 143.426 115.846C129.245 125.491 118.956 140.45 115.455 157.849H115.448C107.788 189.242 103.526 231.724 104.499 250.23H104.507C104.829 267.19 117.645 281.796 134.958 283.86C136.34 284.025 137.713 284.103 139.071 284.103C147.429 284.103 155.246 281.058 161.32 275.933C180.376 261.194 202.555 242.068 222.615 223.036L222.497 222.919C235.933 211.452 245.375 193.606 249.77 170.351C255.703 138.982 274.625 118.396 300.391 115.265C303.09 114.935 305.704 114.81 308.231 114.841V114.88C310.868 114.904 313.458 115.108 315.993 115.461C326.556 117.015 335.017 121.222 340.754 124.957C355.485 135.042 364.981 151.783 364.981 171.026C364.981 201.399 340.267 226.113 309.895 226.113C297.055 226.113 285.958 222.456 276.917 215.259C276.65 215.008 276.383 214.757 276.116 214.505L268.15 222.903C288.689 242.39 311.967 262.356 332.011 277.683L332.042 277.644C337.764 281.741 344.733 284.127 352.126 284.127C353.484 284.127 354.857 284.048 356.238 283.883C373.551 281.819 386.368 267.214 386.689 250.254H386.697C387.757 230.217 382.428 187.092 375.309 157.888ZM127.189 271.334C124.638 269.631 122.221 267.332 120.431 264.726C122.26 263.149 123.837 261.854 125.658 260.386C127.134 262.293 128.994 264.208 130.877 265.425L127.189 271.334ZM175.706 252.138C169.993 257.098 158.095 267.426 150.71 271.421C147.233 273.304 143.521 274.254 139.675 274.254C139.549 274.254 139.424 274.254 139.298 274.254L139.408 267.465C142.194 267.496 144.925 266.829 147.476 265.448C154.21 261.806 165.723 251.808 171.256 247.005L172.457 245.961L176.899 251.102L175.706 252.138ZM375.937 218.343C375.937 218.343 376.11 220.337 376.212 221.522C376.353 223.178 376.495 224.841 376.557 225.461L369.8 226.144C369.737 225.509 369.588 223.798 369.447 222.095C369.353 220.941 369.18 219.002 369.18 219.002L375.937 218.343ZM377.625 249.752C376.738 259.711 371.589 267.575 363.875 270.777L361.269 264.498C369.188 261.21 370.608 251.918 370.86 249.139C371.119 246.298 371.064 242.021 370.718 236.425L377.499 236.002C377.868 242.037 377.915 246.526 377.625 249.752Z" fill="#212136"/>
<path d="M166.657 152.45L159.821 149.593C157.608 154.89 153.017 157.394 147.547 156.272L146.056 163.531C147.413 163.806 148.747 163.947 150.05 163.947C151.675 163.947 153.244 163.728 154.744 163.319C158.314 172.423 164.153 180.711 171.837 187.515L176.75 181.967C169.726 175.751 164.452 168.162 161.344 159.843C163.573 157.959 165.401 155.471 166.657 152.45Z" fill="#212136"/>
<path d="M191.167 160.384C187.463 153.933 186.16 146.14 187.062 135.866L176.601 134.948C175.502 147.474 177.237 157.214 182.063 165.619L191.167 160.384Z" fill="#212136"/>
<path d="M486.86 254.78C486.86 222.65 508.66 203.26 538.81 203.26C554.52 203.26 567.54 209.21 575.47 218.97L555.51 241.19C551.55 237.93 546.45 234.68 539.52 234.68C528.06 234.68 519.56 242.04 519.56 254.78C519.56 267.8 528.48 275.16 539.52 275.16C546.17 275.16 551.27 272.33 555.23 269.22L574.48 292.15C566.41 300.93 553.67 306.59 538.81 306.59C508.66 306.58 486.86 286.91 486.86 254.78Z" fill="#F74660"/>
<path d="M577.04 254.78C577.04 223.5 600.25 203.26 630.26 203.26C660.27 203.26 683.48 223.5 683.48 254.78C683.48 287.48 660.27 306.59 630.26 306.59C600.25 306.58 577.04 287.47 577.04 254.78ZM649.93 254.78C649.93 242.61 642 233.83 629.97 233.83C617.94 233.83 610.01 242.61 610.01 254.78C610.01 267.09 617.94 275.87 629.97 275.87C642.01 275.87 649.93 267.09 649.93 254.78Z" fill="#F74660"/>
<path d="M693.12 205.38H727.09L763.61 259.03H764.6V205.38H795.03V304.46H761.06L724.68 250.96H723.55V304.46H693.12V205.38Z" fill="#F74660"/>
<path d="M834.84 230.86H806.53V205.38H895.7V230.86H867.39V304.46H834.84V230.86Z" fill="#F74660"/>
<path d="M1009.72 254.78C1009.72 223.5 1032.93 203.26 1062.94 203.26C1092.95 203.26 1116.16 223.5 1116.16 254.78C1116.16 287.48 1092.95 306.59 1062.94 306.59C1032.93 306.58 1009.72 287.47 1009.72 254.78ZM1082.62 254.78C1082.62 242.61 1074.69 233.83 1062.66 233.83C1050.63 233.83 1042.7 242.61 1042.7 254.78C1042.7 267.09 1050.63 275.87 1062.66 275.87C1074.69 275.87 1082.62 267.09 1082.62 254.78Z" fill="#F74660"/>
<path d="M1125.1 205.38H1157.65V278.98H1196.86V304.46H1125.1V205.38Z" fill="#F74660"/>
<path d="M1003.02 239.64C1003.02 221.27 988.08 205.38 969.71 205.38H906.75V219.8V263.89V273.91V304.46H936.32H938.58V273.91H951.52L962.95 304.46H999.61L984.55 270.21C995.49 264.46 1003.02 252.68 1003.02 239.64ZM961.23 250.25H938.59V229.04H961.23C966.56 229.04 970.88 234.32 970.88 239.64C970.88 244.97 966.56 250.25 961.23 250.25Z" fill="#F74660"/>
<path d="M486.86 125.71C486.86 93.58 508.66 74.19 538.81 74.19C554.52 74.19 567.54 80.14 575.47 89.9L555.51 112.12C551.55 108.86 546.45 105.61 539.52 105.61C528.06 105.61 519.56 112.97 519.56 125.71C519.56 138.73 528.48 146.09 539.52 146.09C546.17 146.09 551.27 143.26 555.23 140.15L574.48 163.08C566.41 171.86 553.67 177.52 538.81 177.52C508.66 177.51 486.86 157.84 486.86 125.71Z" fill="#FFEC3B"/>
<path d="M692.13 125.71C692.13 94.43 715.34 74.19 745.35 74.19C775.36 74.19 798.57 94.43 798.57 125.71C798.57 158.41 775.36 177.52 745.35 177.52C715.34 177.51 692.13 158.4 692.13 125.71ZM765.03 125.71C765.03 113.54 757.1 104.76 745.07 104.76C733.04 104.76 725.11 113.54 725.11 125.71C725.11 138.02 733.04 146.8 745.07 146.8C757.1 146.8 765.03 138.02 765.03 125.71Z" fill="#FFEC3B"/>
<path d="M799.99 76.31H833.82L844.58 136.61H846.56L865.01 91.49H871.7L890.15 136.61H892.13L902.89 76.31H936.86L916.48 175.39H879.31L869.34 144.75H867.36L857.39 175.39H820.36L799.99 76.31Z" fill="#FFEC3B"/>
<path d="M948.46 76.31H997.01C1025.6 76.31 1047.12 93.44 1047.12 125.99C1047.12 158.55 1025.61 175.39 997.01 175.39H948.46V76.31ZM993.47 149.91C1009.04 149.91 1015.83 140.57 1015.83 125.85C1015.83 111.13 1009.04 101.79 992.33 101.79H980.86V149.91H993.47Z" fill="#FFEC3B"/>
<path d="M684.18 110.57C684.18 92.2 669.24 76.31 650.87 76.31H586.94V90.73V134.82V144.84V175.39H616.51H618.77V144.84H632.69L644.12 175.39H680.78L665.72 141.14C676.65 135.39 684.18 123.61 684.18 110.57ZM642.39 121.18H618.77V99.97H642.39C647.72 99.97 652.04 105.25 652.04 110.57C652.03 115.9 647.72 121.18 642.39 121.18Z" fill="#FFEC3B"/>
<path d="M1053.05 94.64V79.77H1047.74V76.74H1061.96V79.77H1056.66V94.64H1053.05Z" fill="#FFEC3B"/>
<path d="M1065.92 94.64V76.74H1071.33L1074.58 88.95L1077.79 76.74H1083.21V94.64H1079.85V80.55L1076.3 94.64H1072.82L1069.28 80.55V94.64H1065.92Z" fill="#FFEC3B"/>
</svg>
