<?xml version="1.0" encoding="utf-8"?>
<!-- Generator: Adobe Illustrator 26.3.1, SVG Export Plug-In . SVG Version: 6.00 Build 0)  -->
<svg version="1.1" id="Layer_1" xmlns="http://www.w3.org/2000/svg" xmlns:xlink="http://www.w3.org/1999/xlink" x="0px" y="0px"
	 viewBox="0 0 710.18 751.36" style="enable-background:new 0 0 710.18 751.36;" xml:space="preserve">
<style type="text/css">
	.st0{fill:#212136;}
	.st1{font-family:'Arial-BoldMT';}
	.st2{font-size:20px;}
	.st3{letter-spacing:1;}
</style>
<g>
	<g>
		<path class="st0" d="M414.21,207.6c1.11-4.11,3.76-7.54,7.46-9.66c3.7-2.12,8-2.67,12.11-1.56c4.11,1.11,7.54,3.76,9.66,7.46
			l16.2-9.29c-4.6-8.02-12.05-13.77-20.98-16.19c-8.92-2.42-18.26-1.22-26.28,3.39c-8.02,4.6-13.77,12.05-16.19,20.98
			c-2.42,8.93-1.22,18.26,3.38,26.28l16.2-9.29C413.65,216.02,413.1,211.72,414.21,207.6z"/>
		<path class="st0" d="M470.48,216.03L456.6,224c6.15,10.71,17.39,16.72,28.93,16.72c5.61,0,11.3-1.42,16.51-4.41
			c7.71-4.43,13.24-11.59,15.57-20.17c2.32-8.58,1.17-17.56-3.26-25.27l-13.88,7.96c2.3,4.01,2.9,8.66,1.69,13.12
			c-1.21,4.46-4.08,8.17-8.08,10.47C485.82,227.17,475.22,224.3,470.48,216.03z"/>
		<path class="st0" d="M508.47,36.76c6.56,5.2,15.81,9.65,26.06,12.52c7.37,2.07,15.02,3.22,22.02,3.22
			c12.72,0,23.24-3.82,25.79-12.88v0c3.94-14.04-15.03-27.29-35.79-33.12c-20.77-5.82-43.86-4.39-47.8,9.66
			C497.63,20.09,497.42,28,508.47,36.76z M524.51,17.15c4.95,0,11.16,0.72,18.28,2.72c17.22,4.83,26.05,13.31,26.16,16
			c-1.5,2.23-13.45,4.88-30.67,0.05c-17.39-4.88-26.22-13.48-26.21-15.93C512.84,18.65,517.35,17.15,524.51,17.15z"/>
		<path class="st0" d="M268.58,201.11l-4.29,22.26c2.72,0.52,5.44,0.78,8.14,0.78c8.44,0,16.68-2.51,23.82-7.35
			c9.43-6.39,15.81-16.06,17.96-27.24l-22.26-4.29C289.87,196.08,279.39,203.18,268.58,201.11z"/>
		<path class="st0" d="M511,147.25c7.62-4.38,17.4-1.73,21.78,5.9l16.19-9.29c-9.5-16.56-30.7-22.3-47.26-12.8
			c-16.56,9.5-22.3,30.7-12.81,47.26l16.2-9.29C500.73,161.39,503.37,151.62,511,147.25z"/>
		<path class="st0" d="M635.18,179.55c-6.69-34.58-25.44-64.53-51.95-85.6l0.11-0.14c-1.83-1.38-3.86-2.84-6.07-4.35
			c-18.93-13.53-41.33-22.73-65.85-26.23c-12.55-1.9-26.27-2.37-41.02-0.58c-65.99,8.02-116.13,61.33-130.85,139.13
			c-15.26,80.63-59.44,125.04-124.39,125.04c-65.6,0-118.96-53.37-118.96-118.96S149.57,88.89,215.17,88.89
			c20.64,0,40.97,5.37,58.79,15.52l12.37-21.72C264.75,70.4,240.14,63.9,215.17,63.9c-10.3,0-20.35,1.11-30.05,3.18
			c-4.08-8.81-6.39-18.61-6.39-28.95c0-12.55,3.37-24.31,9.23-34.45c-30.75,5.57-54.62,31.85-55.89,64.37
			c-0.28,7.17,0.56,14.12,2.36,20.69c-30.63,20.83-52.84,53.14-60.4,90.7l-0.01,0c-16.54,67.79-25.74,159.55-23.65,199.5l0.02,0
			c0.7,36.63,28.37,68.17,65.77,72.63c2.98,0.35,5.95,0.53,8.88,0.53c18.05,0,34.92-6.57,48.05-17.65
			c41.15-31.82,89.05-73.14,132.36-114.24l-0.25-0.26c29.01-24.76,49.4-63.3,58.9-113.51c12.82-67.74,53.68-112.21,109.31-118.97
			c5.84-0.71,11.48-0.99,16.93-0.92l0,0.08c5.7,0.05,11.28,0.5,16.76,1.25c22.81,3.36,41.09,12.44,53.48,20.5
			c31.82,21.77,52.31,57.94,52.31,99.49c0,65.6-53.37,118.96-118.96,118.96c-27.73,0-51.69-7.89-71.23-23.44
			c-0.57-0.54-1.16-1.09-1.73-1.63l-17.2,18.13c44.35,42.08,94.62,85.2,137.92,118.3l0.07-0.09c12.35,8.85,27.4,14,43.37,14
			c2.93,0,5.9-0.18,8.88-0.53c37.39-4.46,65.07-36,65.76-72.63l0.01,0C662.06,335.75,650.56,242.62,635.18,179.55z M99.36,424.54
			c-5.5-3.68-10.74-8.64-14.59-14.26c3.95-3.4,7.36-6.2,11.29-9.37c3.18,4.12,7.21,8.25,11.28,10.88L99.36,424.54z M204.12,383.09
			c-12.34,10.71-38.03,33.01-53.99,41.65c-7.51,4.06-15.52,6.12-23.83,6.12c-0.27,0-0.55,0-0.82-0.01l0.24-14.67
			c6.02,0.07,11.91-1.37,17.42-4.35c14.54-7.87,39.4-29.45,51.35-39.82l2.59-2.25l9.6,11.1L204.12,383.09z M636.53,310.1
			c0,0,0.37,4.31,0.59,6.86c0.3,3.58,0.6,7.16,0.74,8.51l-14.6,1.47c-0.14-1.38-0.45-5.07-0.76-8.74c-0.21-2.48-0.57-6.68-0.57-6.68
			L636.53,310.1z M640.18,377.94c-1.92,21.51-13.03,38.49-29.7,45.4l-5.63-13.55c17.1-7.09,20.17-27.18,20.71-33.16
			c0.55-6.13,0.45-15.37-0.3-27.46l14.64-0.91C640.72,361.27,640.81,370.97,640.18,377.94z"/>
		<path class="st0" d="M184.59,167.81l-14.77-6.17c-4.79,11.44-14.69,16.84-26.5,14.42l-3.21,15.68c2.93,0.6,5.81,0.89,8.63,0.89
			c3.51,0,6.9-0.48,10.14-1.36c7.72,19.66,20.32,37.57,36.91,52.26l10.61-11.98c-15.16-13.43-26.55-29.81-33.28-47.78
			C177.91,179.7,181.86,174.33,184.59,167.81z"/>
		<path class="st0" d="M237.52,184.93c-8-13.93-10.82-30.76-8.87-52.95l-22.59-1.99c-2.38,27.04,1.37,48.09,11.79,66.24
			L237.52,184.93z"/>
	</g>
	<g>
		<path class="st0" d="M74.96,563.21c0-32.13,21.8-51.52,51.95-51.52c15.71,0,28.73,5.95,36.66,15.71l-19.96,22.22
			c-3.96-3.26-9.06-6.51-15.99-6.51c-11.46,0-19.96,7.36-19.96,20.1c0,13.02,8.92,20.38,19.96,20.38c6.65,0,11.75-2.83,15.71-5.94
			l19.25,22.93c-8.07,8.78-20.81,14.44-35.67,14.44C96.76,615.01,74.96,595.34,74.96,563.21z"/>
		<path class="st0" d="M280.23,563.21c0-31.28,23.21-51.52,53.22-51.52c30.01,0,53.22,20.24,53.22,51.52
			c0,32.7-23.21,51.81-53.22,51.81C303.45,615.01,280.23,595.9,280.23,563.21z M353.13,563.21c0-12.17-7.93-20.95-19.96-20.95
			c-12.03,0-19.96,8.78-19.96,20.95c0,12.31,7.93,21.09,19.96,21.09C345.2,584.3,353.13,575.52,353.13,563.21z"/>
		<path class="st0" d="M388.09,513.81h33.83l10.76,60.3h1.98l18.45-45.12h6.69l18.45,45.12h1.98l10.76-60.3h33.97l-20.38,99.08
			h-37.17l-9.97-30.64h-1.98l-9.97,30.64h-37.03L388.09,513.81z"/>
		<path class="st0" d="M536.56,513.81h48.55c28.59,0,50.11,17.13,50.11,49.68c0,32.56-21.51,49.4-50.11,49.4h-48.55V513.81z
			 M581.57,587.41c15.57,0,22.36-9.34,22.36-24.06c0-14.72-6.79-24.06-23.5-24.06h-11.47v48.12H581.57z"/>
		<path class="st0" d="M272.28,548.07c0-18.37-14.94-34.26-33.31-34.26h-63.93v14.42v44.09v10.02v30.55h29.57h2.26v-30.55h13.92
			l11.43,30.55h36.66l-15.06-34.25C264.75,572.89,272.28,561.11,272.28,548.07z M230.49,558.68h-23.62v-21.21h23.62
			c5.33,0,9.65,5.28,9.65,10.6C240.14,553.4,235.82,558.68,230.49,558.68z"/>
	</g>
	<g>
		<path class="st0" d="M2.59,696.28c0-32.13,21.8-51.52,51.95-51.52c15.71,0,28.73,5.95,36.66,15.71l-19.96,22.22
			c-3.96-3.26-9.06-6.51-15.99-6.51c-11.46,0-19.96,7.36-19.96,20.1c0,13.02,8.92,20.38,19.96,20.38c6.65,0,11.75-2.83,15.71-5.94
			l19.25,22.93c-8.07,8.78-20.81,14.44-35.67,14.44C24.39,748.08,2.59,728.41,2.59,696.28z"/>
		<path class="st0" d="M90.77,696.28c0-31.28,23.21-51.52,53.22-51.52c30.01,0,53.22,20.24,53.22,51.52
			c0,32.7-23.21,51.81-53.22,51.81C113.98,748.08,90.77,728.97,90.77,696.28z M163.66,696.28c0-12.17-7.93-20.95-19.96-20.95
			c-12.03,0-19.96,8.78-19.96,20.95c0,12.31,7.93,21.09,19.96,21.09C155.74,717.37,163.66,708.59,163.66,696.28z"/>
		<path class="st0" d="M205.85,646.88h33.97l36.52,53.65h0.99v-53.65h30.43v99.08h-33.97l-36.38-53.5h-1.13v53.5h-30.43V646.88z"/>
		<path class="st0" d="M346.57,672.36h-28.31v-25.48h89.17v25.48h-28.31v73.6h-32.55V672.36z"/>
		<path class="st0" d="M520.45,696.28c0-31.28,23.21-51.52,53.22-51.52c30.01,0,53.22,20.24,53.22,51.52
			c0,32.7-23.21,51.81-53.22,51.81C543.66,748.08,520.45,728.97,520.45,696.28z M593.34,696.28c0-12.17-7.93-20.95-19.96-20.95
			c-12.03,0-19.96,8.78-19.96,20.95c0,12.31,7.93,21.09,19.96,21.09C585.42,717.37,593.34,708.59,593.34,696.28z"/>
		<path class="st0" d="M635.82,646.88h32.55v73.6h39.21v25.48h-71.76V646.88z"/>
		<path class="st0" d="M513.75,681.14c0-18.37-14.94-34.26-33.31-34.26h-62.96v14.42v44.09v10.02v30.55h29.57h2.26v-30.55h12.94
			l11.43,30.55h36.66l-15.06-34.25C506.22,705.96,513.75,694.18,513.75,681.14z M471.96,691.75h-22.64v-21.21h22.64
			c5.33,0,9.65,5.28,9.65,10.6C481.6,686.47,477.29,691.75,471.96,691.75z"/>
	</g>
	<text transform="matrix(1 0 0 1 675.1473 660.5746)"><tspan x="0" y="0" class="st0 st1 st2 st3">T</tspan><tspan x="13.56" y="0" class="st0 st1 st2">M</tspan></text>
</g>
</svg>
