<?xml version="1.0" encoding="utf-8"?>
<!-- Generator: Adobe Illustrator 26.3.1, SVG Export Plug-In . SVG Version: 6.00 Build 0)  -->
<svg version="1.1" id="Layer_1" xmlns="http://www.w3.org/2000/svg" xmlns:xlink="http://www.w3.org/1999/xlink" x="0px" y="0px"
	 viewBox="0 0 1261.05 386.92" style="enable-background:new 0 0 1261.05 386.92;" xml:space="preserve">
<style type="text/css">
	.st0{fill:#212136;}
</style>
<g>
	<path class="st0" d="M294.51,178.9c0.81-2.98,2.73-5.47,5.41-7.01c2.68-1.54,5.8-1.94,8.78-1.13c2.98,0.81,5.47,2.73,7.01,5.41
		l11.75-6.74c-3.34-5.82-8.74-9.99-15.22-11.74c-6.47-1.75-13.24-0.88-19.06,2.46c-5.82,3.34-9.99,8.74-11.74,15.22
		c-1.75,6.47-0.88,13.24,2.45,19.06l11.75-6.74C294.11,185,293.71,181.88,294.51,178.9z"/>
	<path class="st0" d="M335.32,185.01l-10.07,5.78c4.46,7.77,12.61,12.12,20.98,12.12c4.07,0,8.19-1.03,11.97-3.2
		c5.59-3.21,9.6-8.4,11.29-14.63c1.69-6.22,0.85-12.73-2.36-18.33l-10.07,5.78c1.67,2.9,2.1,6.28,1.23,9.52
		c-0.88,3.23-2.96,5.93-5.86,7.59C346.44,193.08,338.76,191.01,335.32,185.01z"/>
	<path class="st0" d="M362.87,54.99c4.76,3.77,11.47,7,18.9,9.08c5.34,1.5,10.9,2.33,15.97,2.33c9.23,0,16.86-2.77,18.7-9.34v0
		c2.86-10.18-10.9-19.79-25.96-24.02c-15.06-4.22-31.81-3.18-34.67,7.01C355.01,42.91,354.86,48.64,362.87,54.99z M374.5,40.77
		c3.59,0,8.1,0.52,13.25,1.97c12.49,3.5,18.89,9.65,18.98,11.6c-1.09,1.62-9.76,3.54-22.24,0.03c-12.61-3.54-19.02-9.78-19.01-11.55
		C366.04,41.86,369.32,40.77,374.5,40.77z"/>
	<path class="st0" d="M188.9,174.19l-3.11,16.15c1.97,0.38,3.94,0.57,5.91,0.57c6.12,0,12.1-1.82,17.28-5.33
		c6.84-4.63,11.46-11.65,13.02-19.76l-16.15-3.11C204.34,170.54,196.74,175.69,188.9,174.19z"/>
	<path class="st0" d="M364.71,135.13c5.53-3.18,12.62-1.26,15.79,4.28l11.74-6.74c-6.89-12.01-22.27-16.17-34.27-9.28
		c-12.01,6.89-16.17,22.27-9.29,34.27l11.75-6.74C357.26,145.38,359.18,138.3,364.71,135.13z"/>
	<path class="st0" d="M454.77,158.55c-4.85-25.08-18.45-46.8-37.67-62.08l0.08-0.1c-1.33-1-2.8-2.06-4.4-3.15
		c-13.73-9.81-29.97-16.48-47.75-19.02c-9.1-1.38-19.05-1.72-29.75-0.42c-47.86,5.81-84.22,44.48-94.9,100.9
		c-11.07,58.48-43.1,90.68-90.21,90.68c-47.57,0-86.28-38.7-86.28-86.28s38.7-86.28,86.28-86.28c14.97,0,29.72,3.89,42.64,11.25
		l8.97-15.75c-15.65-8.92-33.5-13.63-51.61-13.63c-7.47,0-14.76,0.81-21.79,2.3c-2.96-6.39-4.63-13.49-4.63-21
		c0-9.1,2.44-17.63,6.69-24.99c-22.3,4.04-39.61,23.1-40.53,46.68c-0.2,5.2,0.41,10.24,1.71,15.01
		c-22.22,15.1-38.32,38.54-43.8,65.78l-0.01,0c-12,49.16-18.67,115.71-17.15,144.68l0.01,0c0.51,26.57,20.58,49.44,47.7,52.67
		c2.16,0.26,4.31,0.38,6.44,0.38c13.09,0,25.33-4.77,34.85-12.8c29.84-23.08,64.58-53.05,95.99-82.85l-0.18-0.19
		c21.04-17.95,35.83-45.91,42.72-82.32c9.3-49.12,38.93-81.38,79.28-86.28c4.23-0.51,8.33-0.72,12.28-0.67l0,0.06
		c4.13,0.04,8.18,0.36,12.15,0.91c16.54,2.43,29.8,9.02,38.78,14.87c23.08,15.79,37.94,42.02,37.94,72.15
		c0,47.57-38.7,86.28-86.28,86.28c-20.11,0-37.49-5.72-51.66-17c-0.42-0.39-0.84-0.79-1.25-1.18l-12.48,13.15
		c32.17,30.52,68.62,61.79,100.02,85.79l0.05-0.07c8.96,6.42,19.87,10.15,31.46,10.15c2.13,0,4.28-0.13,6.44-0.38
		c27.12-3.23,47.19-26.11,47.69-52.67l0.01,0C474.26,271.83,465.92,204.29,454.77,158.55z M66.17,336.23
		c-3.99-2.67-7.79-6.27-10.58-10.34c2.87-2.47,5.34-4.49,8.19-6.8c2.31,2.99,5.23,5.98,8.18,7.89L66.17,336.23z M142.15,306.16
		c-8.95,7.77-27.58,23.94-39.15,30.2c-5.45,2.95-11.26,4.44-17.28,4.44c-0.2,0-0.4,0-0.59-0.01l0.17-10.64
		c4.37,0.05,8.64-0.99,12.64-3.16c10.54-5.71,28.58-21.36,37.24-28.88l1.88-1.63l6.96,8.05L142.15,306.16z M455.75,253.23
		c0,0,0.27,3.13,0.43,4.97c0.22,2.59,0.44,5.2,0.54,6.17l-10.59,1.07c-0.1-1-0.33-3.68-0.55-6.34c-0.15-1.8-0.41-4.85-0.41-4.85
		L455.75,253.23z M458.39,302.43c-1.39,15.6-9.45,27.91-21.54,32.93l-4.08-9.83c12.4-5.14,14.63-19.71,15.02-24.05
		c0.4-4.45,0.33-11.15-0.22-19.91l10.62-0.66C458.78,290.34,458.85,297.38,458.39,302.43z"/>
	<path class="st0" d="M127.98,150.04l-10.71-4.48c-3.47,8.3-10.65,12.22-19.22,10.46l-2.33,11.37c2.12,0.43,4.22,0.65,6.26,0.65
		c2.55,0,5-0.35,7.35-0.99c5.6,14.26,14.73,27.24,26.77,37.9l7.7-8.69c-11-9.74-19.26-21.62-24.13-34.65
		C123.14,158.66,126.01,154.76,127.98,150.04z"/>
	<path class="st0" d="M166.37,162.45c-5.8-10.1-7.85-22.3-6.43-38.4l-16.38-1.44c-1.73,19.61,0.99,34.88,8.55,48.04L166.37,162.45z"
		/>
</g>
<g>
	<path class="st0" d="M520.61,268.86c0-32.13,21.8-51.52,51.95-51.52c15.71,0,28.73,5.95,36.66,15.71l-19.96,22.22
		c-3.96-3.26-9.06-6.51-15.99-6.51c-11.46,0-19.96,7.36-19.96,20.1c0,13.02,8.92,20.38,19.96,20.38c6.65,0,11.75-2.83,15.71-5.94
		l19.25,22.93c-8.07,8.78-20.81,14.44-35.67,14.44C542.41,320.67,520.61,300.99,520.61,268.86z"/>
	<path class="st0" d="M610.79,268.86c0-31.28,23.21-51.52,53.22-51.52c30.01,0,53.22,20.24,53.22,51.52
		c0,32.7-23.21,51.81-53.22,51.81C634,320.67,610.79,301.56,610.79,268.86z M683.69,268.86c0-12.17-7.93-20.95-19.96-20.95
		c-12.03,0-19.96,8.78-19.96,20.95c0,12.31,7.93,21.09,19.96,21.09C675.76,289.95,683.69,281.17,683.69,268.86z"/>
	<path class="st0" d="M726.87,219.46h33.97l36.52,53.65h0.99v-53.65h30.43v99.08h-33.97l-36.38-53.5h-1.13v53.5h-30.43V219.46z"/>
	<path class="st0" d="M868.59,244.94h-28.31v-25.48h89.17v25.48h-28.31v73.6h-32.55V244.94z"/>
	<path class="st0" d="M1043.47,268.86c0-31.28,23.21-51.52,53.22-51.52c30.01,0,53.22,20.24,53.22,51.52
		c0,32.7-23.21,51.81-53.22,51.81C1066.69,320.67,1043.47,301.56,1043.47,268.86z M1116.37,268.86c0-12.17-7.93-20.95-19.96-20.95
		c-12.03,0-19.96,8.78-19.96,20.95c0,12.31,7.93,21.09,19.96,21.09C1108.44,289.95,1116.37,281.17,1116.37,268.86z"/>
	<path class="st0" d="M1158.85,219.46h32.55v73.6h39.21v25.48h-71.76V219.46z"/>
	<path class="st0" d="M1036.77,253.73c0-18.37-14.94-34.26-33.31-34.26h-62.96v14.42v44.09v10.02v30.55h29.57h2.26v-30.55h12.94
		l11.43,30.55h36.66l-15.06-34.25C1029.25,278.54,1036.77,266.76,1036.77,253.73z M994.98,264.33h-22.64v-21.21h22.64
		c5.33,0,9.65,5.28,9.65,10.6C1004.63,259.05,1000.31,264.33,994.98,264.33z"/>
</g>
<g>
	<path class="st0" d="M520.61,139.79c0-32.13,21.8-51.52,51.95-51.52c15.71,0,28.73,5.95,36.66,15.71l-19.96,22.22
		c-3.96-3.26-9.06-6.51-15.99-6.51c-11.46,0-19.96,7.36-19.96,20.1c0,13.02,8.92,20.38,19.96,20.38c6.65,0,11.75-2.83,15.71-5.94
		l19.25,22.93c-8.07,8.78-20.81,14.44-35.67,14.44C542.41,191.6,520.61,171.92,520.61,139.79z"/>
	<path class="st0" d="M725.88,139.79c0-31.28,23.21-51.52,53.22-51.52c30.01,0,53.22,20.24,53.22,51.52
		c0,32.7-23.21,51.81-53.22,51.81C749.1,191.6,725.88,172.49,725.88,139.79z M798.78,139.79c0-12.17-7.93-20.95-19.96-20.95
		c-12.03,0-19.96,8.78-19.96,20.95c0,12.31,7.93,21.09,19.96,21.09C790.85,160.88,798.78,152.11,798.78,139.79z"/>
	<path class="st0" d="M833.74,90.39h33.83l10.76,60.3h1.98l18.45-45.12h6.69l18.45,45.12h1.98l10.76-60.3h33.97l-20.38,99.08h-37.17
		l-9.97-30.64h-1.98l-9.97,30.64h-37.03L833.74,90.39z"/>
	<path class="st0" d="M982.21,90.39h48.55c28.59,0,50.11,17.13,50.11,49.68c0,32.56-21.51,49.4-50.11,49.4h-48.55V90.39z
		 M1027.22,164c15.57,0,22.36-9.34,22.36-24.06c0-14.72-6.79-24.06-23.5-24.06h-11.47V164H1027.22z"/>
	<path class="st0" d="M717.93,124.66c0-18.37-14.94-34.26-33.31-34.26h-63.93v14.42v44.09v10.02v30.55h29.57h2.26v-30.55h13.92
		l11.43,30.55h36.66l-15.06-34.25C710.4,149.47,717.93,137.69,717.93,124.66z M676.14,135.26h-23.62v-21.21h23.62
		c5.33,0,9.65,5.28,9.65,10.6C685.79,129.98,681.47,135.26,676.14,135.26z"/>
</g>
<g>
	<path class="st0" d="M1086.76,108.66V93.79h-5.31v-3.03h14.22v3.03h-5.3v14.87H1086.76z"/>
	<path class="st0" d="M1099.63,108.66v-17.9h5.41l3.25,12.21l3.21-12.21h5.42v17.9h-3.36V94.57l-3.55,14.09h-3.48l-3.54-14.09v14.09
		H1099.63z"/>
</g>
</svg>
