<?xml version="1.0" standalone="no"?>
<!DOCTYPE svg PUBLIC "-//W3C//DTD SVG 20010904//EN" "http://www.w3.org/TR/2001/REC-SVG-20010904/DTD/svg10.dtd">
<!-- Created using Krita: https://krita.org -->
<svg xmlns="http://www.w3.org/2000/svg" 
    xmlns:xlink="http://www.w3.org/1999/xlink"
    xmlns:krita="http://krita.org/namespaces/svg/krita"
    xmlns:sodipodi="http://sodipodi.sourceforge.net/DTD/sodipodi-0.dtd"
    width="439.2pt"
    height="323.28pt"
    viewBox="0 0 439.2 323.28">
<defs/>
<g id="group0" transform="translate(0.00296329132407178, 0.0658850883386197)" fill="none">
  <path id="shape0" transform="matrix(0.719999959976948 0 0 0.719999959976948 248.322012620305 125.176102663572)" fill="#212136" stroke-opacity="0" stroke="#000000" stroke-width="0" stroke-linecap="square" stroke-linejoin="bevel" d="M19.2417 30.4613C20.3517 26.3513 23.0017 22.9213 26.7017 20.8013C30.4017 18.6813 34.7017 18.1313 38.8117 19.2413C42.9217 20.3513 46.3517 23.0013 48.4717 26.7013L64.6717 17.4113C60.0717 9.3913 52.6217 3.6413 43.6917 1.2213C34.7717 -1.1987 25.4317 0.00130301 17.4117 4.6113C9.39169 9.2113 3.64169 16.6613 1.22169 25.5913C-1.19831 34.5213 0.00168093 43.8513 4.60169 51.8713L20.8017 42.5813C18.6817 38.8813 18.1317 34.5813 19.2417 30.4613Z" sodipodi:nodetypes="ccccccccccc"/>
  <path id="shape1" transform="matrix(0.719999959976948 0 0 0.719999959976948 292.696820428459 135.062640278544)" fill="#212136" stroke-opacity="0" stroke="#000000" stroke-width="0" stroke-linecap="square" stroke-linejoin="bevel" d="M13.88 25.16L0 33.13C6.15 43.84 17.39 49.85 28.93 49.85C34.54 49.85 40.23 48.43 45.44 45.44C53.15 41.01 58.68 33.85 61.01 25.27C63.33 16.69 62.18 7.71 57.75 0L43.87 7.96C46.17 11.97 46.77 16.62 45.56 21.08C44.35 25.54 41.48 29.25 37.48 31.55C29.22 36.3 18.62 33.43 13.88 25.16Z" sodipodi:nodetypes="cccccccccc"/>
  <path id="shape2" transform="matrix(0.719999959976948 0 0 0.719999959976948 322.679255737507 4.16333634234434e-17)" fill="#212136" stroke-opacity="0" stroke="#000000" stroke-width="0" stroke-linecap="square" stroke-linejoin="bevel" d="M10.2277 33.477C16.7877 38.677 26.0377 43.127 36.2877 45.997C43.6577 48.067 51.3077 49.217 58.3077 49.217C71.0277 49.217 81.5477 45.397 84.0977 36.337L84.0977 36.337C88.0377 22.297 69.0677 9.04701 48.3077 3.21701C27.5377 -2.60299 4.44773 -1.17299 0.507727 12.877C-0.612273 16.807 -0.822273 24.717 10.2277 33.477ZM26.2677 13.867C31.2177 13.867 37.4277 14.587 44.5477 16.587C61.7677 21.417 70.5977 29.897 70.7077 32.587C69.2077 34.817 57.2577 37.467 40.0377 32.637C22.6477 27.757 13.8177 19.157 13.8277 16.707C14.5977 15.367 19.1077 13.867 26.2677 13.867Z" sodipodi:nodetypes="cccccccccccccc"/>
  <path id="shape3" transform="matrix(0.719999959976948 0 0 0.719999959976948 154.233628125292 131.030640502674)" fill="#212136" stroke-opacity="0" stroke="#000000" stroke-width="0" stroke-linecap="square" stroke-linejoin="bevel" d="M4.29 15.84L0 38.1C2.72 38.62 5.44 38.88 8.14 38.88C16.58 38.88 24.82 36.37 31.96 31.53C41.39 25.14 47.77 15.47 49.92 4.29L27.66 0C25.58 10.81 15.1 17.91 4.29 15.84Z" sodipodi:nodetypes="ccccccc"/>
  <path id="shape4" transform="matrix(0.719999959976948 0 0 0.719999959976948 312.656437885375 88.6980634046641)" fill="#212136" stroke-opacity="0" stroke="#000000" stroke-width="0" stroke-linecap="square" stroke-linejoin="bevel" d="M26.6783 20.7753C34.2983 16.3953 44.0783 19.0453 48.4583 26.6753L64.6483 17.3853C55.1483 0.82525 33.9483 -4.91474 17.3883 4.58526C0.828308 14.0853 -4.9117 35.2853 4.5783 51.8453L20.7783 42.5553C16.4083 34.9153 19.0483 25.1453 26.6783 20.7753Z" sodipodi:nodetypes="ccccccc"/>
  <path id="shape5" transform="matrix(0.719999959976948 0 0 0.719999959976948 2.47198095326695e-17 0.285847770459483)" fill="#212136" stroke-opacity="0" stroke="#000000" stroke-width="0" stroke-linecap="square" stroke-linejoin="bevel" d="M585.103 175.87C578.413 141.29 559.663 111.34 533.153 90.27L533.263 90.13C531.433 88.75 529.403 87.29 527.193 85.78C508.263 72.25 485.863 63.05 461.343 59.55C448.793 57.65 435.073 57.18 420.323 58.97C354.333 66.99 304.193 120.3 289.473 198.1C274.213 278.73 230.033 323.14 165.083 323.14C99.4834 323.14 46.1234 269.77 46.1234 204.18C46.1234 138.59 99.4934 85.21 165.093 85.21C185.733 85.21 206.063 90.58 223.883 100.73L236.253 79.01C214.673 66.72 190.063 60.22 165.093 60.22C154.793 60.22 144.743 61.33 135.043 63.4C130.963 54.59 128.653 44.79 128.653 34.45C128.653 21.9 132.023 10.14 137.883 0C107.133 5.57 83.2634 31.85 81.9934 64.37C81.7134 71.54 82.5534 78.49 84.3534 85.06C53.7234 105.89 31.5134 138.2 23.9534 175.76L23.9434 175.76C7.40339 243.55 -1.79661 335.31 0.293385 375.26L0.313385 375.26C1.01339 411.89 28.6834 443.43 66.0834 447.89C69.0634 448.24 72.0334 448.42 74.9634 448.42C93.0134 448.42 109.883 441.85 123.013 430.77C164.163 398.95 212.063 357.63 255.373 316.53L255.123 316.27C284.133 291.51 304.523 252.97 314.023 202.76C326.843 135.02 367.703 90.55 423.333 83.79C429.173 83.08 434.813 82.8 440.263 82.87L440.263 82.95C445.963 83 451.543 83.45 457.023 84.2C479.833 87.56 498.113 96.64 510.503 104.7C542.323 126.47 562.813 162.64 562.813 204.19C562.813 269.79 509.443 323.15 443.853 323.15C416.123 323.15 392.163 315.26 372.623 299.71C372.053 299.17 371.463 298.62 370.893 298.08L353.693 316.21C398.043 358.29 448.313 401.41 491.613 434.51L491.683 434.42C504.033 443.27 519.083 448.42 535.053 448.42C537.983 448.42 540.953 448.24 543.933 447.89C581.323 443.43 609.003 411.89 609.693 375.26L609.703 375.26C611.983 332.07 600.483 238.94 585.103 175.87ZM49.2834 420.86C43.7834 417.18 38.5434 412.22 34.6934 406.6C38.6434 403.2 42.0534 400.4 45.9834 397.23C49.1634 401.35 53.1934 405.48 57.2634 408.11ZM154.043 379.41C141.703 390.12 116.013 412.42 100.053 421.06C92.5434 425.12 84.5334 427.18 76.2234 427.18C75.9534 427.18 75.6734 427.18 75.4034 427.17L75.6434 412.5C81.6634 412.57 87.5534 411.13 93.0634 408.15C107.603 400.28 132.463 378.7 144.413 368.33L147.003 366.08L156.603 377.18ZM586.453 306.42C586.453 306.42 586.823 310.73 587.043 313.28C587.343 316.86 587.643 320.44 587.783 321.79L573.183 323.26C573.043 321.88 572.733 318.19 572.423 314.52C572.213 312.04 571.853 307.84 571.853 307.84ZM590.103 374.26C588.183 395.77 577.073 412.75 560.403 419.66L554.773 406.11C571.873 399.02 574.943 378.93 575.483 372.95C576.033 366.82 575.933 357.58 575.183 345.49L589.823 344.58C590.643 357.59 590.733 367.29 590.103 374.26Z" sodipodi:nodetypes="cccccccccccccccccccccccccccccccccccccccccccccccccccccccccccccccccccccccccc"/>
  <path id="shape6" transform="matrix(0.719999959976948 0 0 0.719999959976948 64.8240330953544 114.017041448418)" fill="#212136" stroke-opacity="0" stroke="#000000" stroke-width="0" stroke-linecap="square" stroke-linejoin="bevel" d="M44.48 6.17L29.71 0C24.92 11.44 15.02 16.84 3.21 14.42L0 30.1C2.93 30.7 5.81 30.99 8.63 30.99C12.14 30.99 15.53 30.51 18.77 29.63C26.49 49.29 39.09 67.2 55.68 81.89L66.29 69.91C51.13 56.48 39.74 40.1 33.01 22.13C37.8 18.06 41.75 12.69 44.48 6.17Z" sodipodi:nodetypes="cccccccccc"/>
  <path id="shape7" transform="matrix(0.719999959976948 0 0 0.719999959976948 111.811852664376 91.2290427151479)" fill="#212136" stroke-opacity="0" stroke="#000000" stroke-width="0" stroke-linecap="square" stroke-linejoin="bevel" d="M32.1491 54.94C24.1491 41.01 21.3291 24.18 23.2791 1.99L0.689137 0C-1.69087 27.04 2.05913 48.09 12.4791 66.24Z" sodipodi:nodetypes="ccccc"/>
 </g>
</svg>
