<?xml version="1.0" standalone="no"?>
<!DOCTYPE svg PUBLIC "-//W3C//DTD SVG 20010904//EN" "http://www.w3.org/TR/2001/REC-SVG-20010904/DTD/svg10.dtd">
<!-- Created using Krita: https://krita.org -->
<svg xmlns="http://www.w3.org/2000/svg" 
    xmlns:xlink="http://www.w3.org/1999/xlink"
    xmlns:krita="http://krita.org/namespaces/svg/krita"
    xmlns:sodipodi="http://sodipodi.sourceforge.net/DTD/sodipodi-0.dtd"
    width="406.8pt"
    height="406.8pt"
    viewBox="0 0 406.8 406.8">
<defs/>
<g id="group0" transform="translate(-0.194418333882272, -0.194418333882264)" fill="none">
  <circle id="shape0" transform="matrix(0.720000086421467 0 0 0.720000086421467 0 0)" r="282.77" cx="282.77" cy="282.77" fill="#ffec3b" stroke-opacity="0" stroke="#000000" stroke-width="0" stroke-linecap="square" stroke-linejoin="bevel"/>
  <path id="shape1" transform="matrix(0.720000086421467 0 0 0.720000086421467 223.853264570185 166.724456723065)" fill="#212136" stroke-opacity="0" stroke="#000000" stroke-width="0" stroke-linecap="square" stroke-linejoin="bevel" d="M13.5727 21.4883C14.3627 18.5883 16.2227 16.1683 18.8327 14.6683C21.4427 13.1683 24.4727 12.7783 27.3727 13.5683C30.2727 14.3583 32.6927 16.2183 34.1927 18.8283L45.6227 12.2783C42.3727 6.61828 37.1227 2.55828 30.8227 0.858282C24.5227 -0.841718 17.9427 -0.00171765 12.2827 3.24828C6.62273 6.49828 2.56273 11.7483 0.862726 18.0483C-0.847274 24.3483 0.00272541 30.9283 3.25273 36.5883L14.6827 30.0383C13.1727 27.4283 12.7827 24.3883 13.5727 21.4883Z" sodipodi:nodetypes="ccccccccccc"/>
  <path id="shape2" transform="matrix(0.720000086421467 0 0 0.720000086421467 255.153630626038 173.692820848314)" fill="#212136" stroke-opacity="0" stroke="#000000" stroke-width="0" stroke-linecap="square" stroke-linejoin="bevel" d="M9.79 17.76L0 23.38C4.34 30.94 12.26 35.17 20.41 35.17C24.37 35.17 28.38 34.17 32.06 32.06C37.5 28.94 41.4 23.88 43.04 17.83C44.68 11.78 43.86 5.45 40.74 0L30.95 5.62C32.57 8.45 33 11.73 32.14 14.88C31.29 18.02 29.26 20.65 26.44 22.27C20.61 25.62 13.14 23.59 9.79 17.76Z" sodipodi:nodetypes="cccccccccc"/>
  <path id="shape3" transform="matrix(0.720000086421467 0 0 0.720000086421467 276.299242695829 78.4084306572717)" fill="#212136" stroke-opacity="0" stroke="#000000" stroke-width="0" stroke-linecap="square" stroke-linejoin="bevel" d="M7.2211 23.6294C11.8511 27.2994 18.3711 30.4394 25.6011 32.4594C30.8011 33.9194 36.2011 34.7294 41.1311 34.7294C50.1011 34.7294 57.5311 32.0394 59.3211 25.6394L59.3211 25.6394C62.1011 15.7294 48.7211 6.38941 34.0711 2.26941C19.4211 -1.84059 3.1311 -0.820585 0.3511 9.08941C-0.4289 11.8694 -0.5689 17.4494 7.2211 23.6294ZM18.5411 9.79941C22.0311 9.79941 26.4211 10.3094 31.4311 11.7194C43.5811 15.1294 49.8111 21.1094 49.8911 23.0094C48.8311 24.5794 40.4011 26.4494 28.2611 23.0394C15.9911 19.5994 9.7611 13.5294 9.7711 11.7994C10.3111 10.8594 13.4911 9.79941 18.5411 9.79941Z" sodipodi:nodetypes="cccccccccccccc"/>
  <path id="shape4" transform="matrix(0.720000086421467 0 0 0.720000086421467 157.478418902102 170.863220508678)" fill="#212136" stroke-opacity="0" stroke="#000000" stroke-width="0" stroke-linecap="square" stroke-linejoin="bevel" d="M3.02 11.16L0 26.87C1.92 27.24 3.84 27.42 5.75 27.42C11.7 27.42 17.52 25.65 22.55 22.24C29.2 17.73 33.7 10.91 35.22 3.02L19.51 0C18.04 7.62 10.65 12.62 3.02 11.16Z" sodipodi:nodetypes="ccccccc"/>
  <path id="shape5" transform="matrix(0.720000086421467 0 0 0.720000086421467 269.234423817319 140.988008423928)" fill="#212136" stroke-opacity="0" stroke="#000000" stroke-width="0" stroke-linecap="square" stroke-linejoin="bevel" d="M18.8233 14.6633C24.2033 11.5733 31.0933 13.4433 34.1833 18.8233L45.6033 12.2633C38.9033 0.583345 23.9433 -3.46667 12.2633 3.23333C0.583345 9.93333 -3.46667 24.8933 3.23333 36.5733L14.6633 30.0233C11.5733 24.6333 13.4433 17.7433 18.8233 14.6633Z" sodipodi:nodetypes="ccccccc"/>
  <path id="shape6" transform="matrix(0.720000086421467 0 0 0.720000086421467 48.6731477796315 78.6168094363599)" fill="#212136" stroke-opacity="0" stroke="#000000" stroke-width="0" stroke-linecap="square" stroke-linejoin="bevel" d="M412.758 124.07C408.038 99.68 394.808 78.55 376.108 63.68L376.178 63.58C374.888 62.61 373.458 61.58 371.898 60.51C358.548 50.97 342.738 44.48 325.448 42.01C316.598 40.67 306.918 40.34 296.518 41.6C249.968 47.26 214.598 84.86 204.208 139.75C193.448 196.63 162.278 227.96 116.458 227.96C70.1784 227.96 32.5384 190.31 32.5384 144.04C32.5384 97.76 70.1884 60.12 116.458 60.12C131.018 60.12 145.368 63.91 157.938 71.07L166.668 55.75C151.438 47.08 134.088 42.49 116.468 42.49C109.198 42.49 102.108 43.27 95.2684 44.73C92.3884 38.52 90.7584 31.6 90.7584 24.31C90.7584 15.45 93.1384 7.16 97.2684 0C75.5784 3.93 58.7384 22.47 57.8384 45.41C57.6384 50.47 58.2384 55.37 59.5084 60.01C37.8984 74.7 22.2284 97.5 16.8984 124L16.8884 124C5.21841 171.82 -1.27159 236.55 0.208413 264.74L0.218413 264.74C0.708413 290.58 20.2384 312.83 46.6184 315.98C48.7184 316.23 50.8184 316.35 52.8884 316.35C65.6184 316.35 77.5284 311.71 86.7884 303.9C115.818 281.45 149.608 252.3 180.168 223.31L179.998 223.13C200.468 205.67 214.848 178.48 221.548 143.05C230.588 95.27 259.418 63.89 298.668 59.12C302.788 58.62 306.768 58.42 310.608 58.47L310.608 58.53C314.628 58.57 318.568 58.88 322.428 59.41C338.518 61.78 351.408 68.18 360.158 73.87C382.608 89.23 397.058 114.74 397.058 144.05C397.058 190.33 359.408 227.97 313.138 227.97C293.578 227.97 276.678 222.4 262.888 211.43C262.478 211.05 262.068 210.66 261.668 210.28L249.528 223.07C280.818 252.75 316.278 283.17 346.828 306.52L346.878 306.45C355.588 312.7 366.208 316.33 377.478 316.33C379.548 316.33 381.638 316.21 383.748 315.96C410.128 312.81 429.648 290.57 430.138 264.72L430.148 264.72C431.718 234.27 423.608 168.56 412.758 124.07ZM34.7584 296.9C30.8784 294.3 27.1884 290.8 24.4684 286.84C27.2584 284.44 29.6584 282.47 32.4384 280.23C34.6884 283.13 37.5284 286.05 40.3984 287.91ZM108.668 267.66C99.9584 275.22 81.8384 290.95 70.5884 297.04C65.2884 299.91 59.6384 301.36 53.7784 301.36C53.5884 301.36 53.3884 301.36 53.1984 301.36L53.3684 291.01C57.6184 291.06 61.7684 290.05 65.6584 287.94C75.9184 282.39 93.4584 267.16 101.888 259.85L103.718 258.26L110.488 266.09ZM413.718 216.17C413.718 216.17 413.978 219.21 414.128 221.01C414.338 223.53 414.558 226.06 414.648 227.01L404.348 228.05C404.248 227.08 404.028 224.48 403.808 221.88C403.658 220.13 403.408 217.17 403.408 217.17ZM416.288 264.03C414.928 279.21 407.098 291.18 395.338 296.06L391.368 286.5C403.428 281.5 405.598 267.33 405.978 263.11C406.368 258.78 406.298 252.27 405.768 243.74L416.098 243.1C416.668 252.27 416.728 259.11 416.288 264.03Z" sodipodi:nodetypes="cccccccccccccccccccccccccccccccccccccccccccccccccccccccccccccccccccccccccc"/>
  <path id="shape7" transform="matrix(0.720000086421467 0 0 0.720000086421467 94.3920113298541 158.853619067168)" fill="#212136" stroke-opacity="0" stroke="#000000" stroke-width="0" stroke-linecap="square" stroke-linejoin="bevel" d="M31.39 4.35L20.97 0C17.59 8.07 10.61 11.88 2.27 10.17L0 21.23C2.07 21.65 4.1 21.86 6.09 21.86C8.57 21.86 10.96 21.52 13.24 20.9C18.68 34.77 27.57 47.4 39.28 57.77L46.77 49.32C36.07 39.85 28.04 28.29 23.29 15.61C26.68 12.74 29.47 8.95 31.39 4.35Z" sodipodi:nodetypes="cccccccccc"/>
  <path id="shape8" transform="matrix(0.720000086421467 0 0 0.720000086421467 127.550105134385 142.776017137378)" fill="#212136" stroke-opacity="0" stroke="#000000" stroke-width="0" stroke-linecap="square" stroke-linejoin="bevel" d="M22.6771 38.76C17.0271 28.93 15.0471 17.06 16.4171 1.4L0.487097 0C-1.1929 19.08 1.4471 33.93 8.8071 46.73Z" sodipodi:nodetypes="ccccc"/>
 </g>
</svg>
